PathFileType	4	(X/Y/Z)	/home/abdul/Desktop/myosuite/custom_workspace/IK/output/S11_12_3.trc
DataRate	CameraRate	NumFrames	NumMarkers	Units	OrigDataRate	OrigDataStartFrame	OrigNumFrames
200.0	200.0	55	3	mm	200.0	989	1976
Frame#	Time	V_Shoulder			V_Elbow			V_Wrist		
		X1	Y1	Z1	X2	Y2	Z2	X3	Y3	Z3

989	4.94	-106.9629950949278	613.6443685238004	296.93178222693456	-271.57419565704146	393.4429375992046	94.64410157744278	-113.56411677781858	313.0545476203538	283.47256175290147
990	4.945	-106.85944259222272	614.1355156390515	297.12840504971456	-271.66838890781105	393.3798813488039	95.74379157589561	-113.43732595140442	314.1918541439154	284.86796536312306
991	4.95	-106.75536176233665	614.6229113045989	297.3243218390899	-271.75984777956904	393.31622332586005	96.84219200731043	-113.30888899461814	315.3243890639331	286.2556235438002
992	4.955	-106.65078162547859	615.1065077595927	297.51950712668315	-271.8487665524781	393.25226848123634	97.93896862210721	-113.17900737839642	316.45181939028976	287.6350252286595
993	4.96	-106.54573081837894	615.5862594653635	297.7139368623447	-271.93534483374367	393.18831856994245	99.03379467637116	-113.04788593970265	317.5738127709462	289.00567100870035
994	4.965	-106.44023762737213	616.0621231052561	297.9075884133218	-272.0197871073968	393.12467139347496	100.12635157183408	-112.91573230091497	318.69003837066566	290.367074399042
995	4.97	-106.33433002041538	616.534057582071	298.10044056050475	-272.10230226072645	393.0616200604785	101.21632946170922	-112.78275628828632	319.8001677389839	291.7187630564082
996	4.975	-106.22803567792884	617.002024013107	298.29247349166604	-272.1831030880921	392.99945226787275	102.30342781909394	-112.64916935124813	320.9038756634502	293.06027994236007
997	4.98	-106.12138202234915	617.4659857228095	298.4836687916123	-272.2624057730203	392.9384496045067	103.3873559648504	-112.51518398428396	322.0008410042615	294.3911844275893
998	4.985	-106.014396246297	617.9259082330236	298.6740094291741	-272.3404293496603	392.8788868793173	104.46783355209071	-112.38101315305063	323.09074750652405	295.711053332813
999	4.99	-105.9071053392668	618.3817592508518	298.8634797409661	-272.41739514484493	392.82103147587657	105.54459100462941	-112.24686972637141	324.17328458651775	297.0194819020631
1000	4.995	-105.79953611275435	618.8335086541287	299.052065411857	-272.4935262021704	392.7651427351093	106.6173699070183	-112.11296591566915	325.24814808849396	298.31608470444087
1001	5.0	-105.69171522374641	619.2811284745145	299.2397534520999	-272.56904668967	392.7114713678648	107.68592334404912	-111.97951272334828	326.31504100872286	299.60049646070456
1002	5.005	-105.58366919650386	619.7245928782247	299.4265321710816	-272.6441812928104	392.6602588989118	108.7500161878927	-111.84671940157213	327.37367418369786	300.87237279138066
1003	5.01	-105.47542444257726	620.1638781444077	299.6123911476642	-272.71915459468994	392.61173714381437	109.80942533134002	-111.71479292281632	328.42376693962973	302.13139088342916
1004	5.015	-105.3670072790019	620.5989626411924	299.79732119710246	-272.7941904454548	392.56612772002677	110.86393986591709	-111.58393746351241	329.4650477005915	303.3772500728528
1005	5.02	-105.25844394462531	621.0298267994286	299.9813143345363	-272.86951132307775	392.52364159342306	111.91336120396254	-111.4543539020261	330.49725455292815	304.6096723410136
1006	5.025	-105.14976061452967	621.4564530841475	300.1643637350722	-272.94533768775904	392.4844786613488	112.9575031440786	-111.32623933214204	331.52013576380807	305.8284027228134
1007	5.03	-105.04098341251587	621.878825963779	300.34646369048227	-273.0218873323157	392.4488273731535	113.99619187969459	-111.19978659315535	332.5334502520697	307.03320962529574
1008	5.035	-104.93213842162504	622.2969318771635	300.52760956256867	-273.0993747310136	392.41686438902786	115.02926595081163	-111.07518381759465	333.5369680098031	308.22388505564174
1009	5.04	-104.82325169267888	622.7107591984025	300.70779773325546	-273.17801038937296	392.3887542778342	116.05657613932982	-110.95261399752519	334.53047047340226	309.4002447579535
1010	5.045	-104.71434925082713	623.1202981996006	300.8870255514907	-273.25800019753973	392.36464925447893	117.07798530868749	-110.83225457030437	335.51375084312593	310.562128258647
1011	5.05	-104.60545710009642	623.525541011555	301.06529127705693	-273.3395447898598	392.3446889572357	118.0933681888695	-110.71427702458375	336.4866143505135	311.7093988207103
1012	5.055	-104.49660122594162	623.9264815824581	301.2425940214101	-273.4228389133227	392.3290002652859	119.10261110816282	-110.5988465272736	337.44887847330995	312.8419433075129
1013	5.06	-104.38780759580571	624.3231156346808	301.4189336856821	-273.50807080755374	392.31769715659993	120.10561167335014	-110.48612157210741	338.40037309786675	313.9596719572885
1014	5.065	-104.27910215770119	624.7154406197176	301.59431089600304	-273.59542159902975	392.31088060613905	121.10227840033747	-110.37625365036519	339.34094062929336	315.0625180698388
1015	5.07	-104.17051083683037	625.1034556713752	301.7687269363183	-273.6850647121744	392.3086385242143	122.09253029750404	-110.26938694423538	340.2704360499419	316.1504376074316
1016	5.075	-104.06205953026813	625.4871615572964	301.9421836788906	-273.77716529994893	392.311045734696	123.0762964043424	-110.1656580432182	341.18872692710556	317.22340871227965
1017	5.08	-103.95377409973533	625.8665606289192	302.1146835126989	-273.871879696505	392.3181639926253	124.05351528822106	-110.06519568389481	342.0956933711057	318.2814311433895
1018	5.085	-103.84568036249618	626.2416567699715	302.28622926995973	-273.9693548943917	392.3300420406408	125.02413450235028	-109.96812051331116	342.9912279452261	319.324525635963
1019	5.09	-103.73780408041783	626.6124553436176	302.45682415101527	-274.0697280487288	392.3467157034936	125.98811000826056	-109.87454487614987	343.8752355292212	320.352733186904
1020	5.095	-103.63017094723453	626.9789631383721	302.6264716478451	-274.173126010653	392.3682080197909	126.94540556631327	-109.78457262578982	344.74763313838605	321.36611427034416
1021	5.1	-103.52280657406378	627.3411883129043	302.79517546647634	-274.27966489223286	392.39452940997717	127.89599209795139	-109.69829895928181	345.6083497004176	322.3647479874354
1022	5.105	-103.41573647322531	627.6991403398657	302.9629394485762	-274.3894496649187	392.4256778794377	128.8398470235639	-109.61581027619815	346.4573257925206	323.34873115497214
1023	5.11	-103.30898604041886	628.0528299488745	303.1297674925256	-274.50257379345067	392.46163925548365	129.77695357997902	-109.53718406124742	347.2945133414206	324.31817733769617
1024	5.115	-103.20258053531938	628.4022690687974	303.29566347427993	-274.61911890699844	392.50238745686653	130.70730012172027	-109.4624887904807	348.1198752891322	325.27321582940215
1025	5.12	-103.09654506065311	628.7474707694748	303.4606311683356	-274.73915450913853	392.5478847943576	131.63087941024912	-109.39178386085294	348.93338522749525	326.2139905881968
1026	5.125	-102.99090453982133	629.0884492030406	303.62467416912426	-274.8627377281039	392.59808230082626	132.54768789548615	-109.32511954284533	349.73502700463473	327.14065913147414
1027	5.13	-102.88568369314169	629.4252195449866	303.7877958131634	-274.9899131085573	392.65292008915617	133.4577249939391	-109.26253695579847	350.5247943066219	328.05339139634464
1028	5.135	-102.78090701278143	629.7577979351305	303.94999910229785	-275.12071244594995	392.7123277362515	134.3609923677794	-109.20406806555381	351.30269021770596	328.95236857140117
1029	5.14	-102.67659873645893	630.0862014186464	304.11128662836376	-275.2551546643323	392.7762246913063	135.25749320919277	-109.14973570395284	352.06872676255796	329.837781905818
1030	5.145	-102.57278281999453	630.4104478873134	304.2716604996113	-275.3932457382797	392.8445207064418	136.1472315342866	-109.09955360969812	352.82292443401457	330.70983150185657
1031	5.15	-102.46948290879372	630.730556021152	304.43112226921653	-275.5349786593961	392.9171162877541	137.03021149076656	-109.05352649003976	353.56531170982703	331.56872509689754
1032	5.155	-102.36672230834938	631.0465452306028	304.58967286621277	-275.680333447648	392.9939031647681	137.90643668349884	-109.01165010271316	354.2959245619195	332.4146768411271
1033	5.16	-102.26452395385279	631.3584355994118	304.7473125291613	-275.8292772075763	393.0747647762511	138.77590952195098	-108.97391135752095	355.01480596162486	333.24790607698424
1034	5.165	-102.16291037900567	631.6662478283815	304.9040407428785	-275.9817642292231	393.1595767703104	139.63863059335588	-108.94028843692209	355.72200538431895	334.0686361264119
1035	5.17	-102.06190368412884	631.9700031801459	305.0598561785223	-276.137736133408	393.2482075166812	140.4945980652716	-108.91075093496573	356.4175783167874	334.87709309186675
1036	5.175	-101.96152550366567	632.2697234251218	305.2147566373335	-276.2971220607839	393.34051862910036	141.34380712101193	-108.88526001388499	357.10158577056393	335.67350467691153
1037	5.18	-101.86179697318151	632.5654307887906	305.3687389983118	-276.4598389039042	393.43636549566713	142.18624943120597	-108.86376857764682	357.77409380435154	336.45809903205543
1038	5.185	-101.76273869596287	632.8571479004542	305.5217991700915	-276.6257915813395	393.53559781510313	143.02191266450416	-108.84622146173987	358.4351730584925	337.23110363131747
1039	5.19	-101.66437070932335	633.1448977436053	305.67393204726767	-276.794873352696	393.6380601368445	143.85078004019175	-108.83255563846895	359.08489830429187	337.9927441847638
1040	5.195	-101.56671245072523	633.428703608049	305.82513147140247	-276.9669661732061	393.74359240293757	144.67282992519347	-108.82270043701612	359.7233480108116	338.7432435920193
1041	5.2	-101.46978272382887	633.7085890438981	305.97539019692533	-277.14194108639305	393.85203048974995	145.48803547766298	-108.81657777752267	360.3506039315573	339.4828209414741
1042	5.205	-101.37359966458479	633.9845778175663	306.12469986211613	-277.31965865314805	393.9632067475606	146.29636433904523	-108.81410241844101	360.9667507132623	340.21169055960195
1043	5.21	-101.27818070748502	634.2566938698641	306.2730509653431	-277.49996941540724	394.07695053615737	147.09777837618412	-108.81518221640547	361.5718755287469	340.93006111447835
